<svg xmlns="http://www.w3.org/2000/svg" viewBox="0 0 1200 760" width="1200" height="760" role="img" aria-label="The Embra 5D Framework: a worldline helix on the conical constraint surface M, emanating from the null-rest axis inside the light cylinder of a flat 5D bulk"><defs>
 <radialGradient id="bg" cx="50%" cy="40%" r="78%">
  <stop offset="0%" stop-color="#161f3d"/><stop offset="55%" stop-color="#0b1124"/><stop offset="100%" stop-color="#05070f"/>
 </radialGradient>
 <radialGradient id="halo" cx="50%" cy="50%" r="50%">
  <stop offset="0%" stop-color="#3f52a0" stop-opacity="0.42"/><stop offset="100%" stop-color="#3f52a0" stop-opacity="0"/>
 </radialGradient>
 <linearGradient id="cone" x1="0" y1="208" x2="0" y2="652" gradientUnits="userSpaceOnUse">
  <stop offset="0%" stop-color="#2fbfae" stop-opacity="0.20"/><stop offset="100%" stop-color="#2fbfae" stop-opacity="0.015"/>
 </linearGradient>
 <linearGradient id="wl" x1="0" y1="208" x2="0" y2="652" gradientUnits="userSpaceOnUse">
  <stop offset="0%" stop-color="#ffd27a"/><stop offset="46%" stop-color="#63e6ff"/><stop offset="100%" stop-color="#7aa2ff"/>
 </linearGradient>
</defs><rect width="1200" height="760" fill="url(#bg)"/><ellipse cx="600" cy="405" rx="480" ry="340" fill="url(#halo)"/><polygon points="600,652 350,208 850,208" fill="url(#cone)"/><line x1="600" y1="652" x2="350" y2="208" stroke="#4fd6c8" stroke-opacity="0.30" stroke-width="1.4"/><line x1="600" y1="652" x2="850" y2="208" stroke="#4fd6c8" stroke-opacity="0.30" stroke-width="1.4"/><ellipse cx="600" cy="501.0" rx="85.0" ry="25.5" fill="none" stroke="#4fd6c8" stroke-opacity="0.22" stroke-width="1.2"/><ellipse cx="600" cy="407.8" rx="137.5" ry="41.2" fill="none" stroke="#4fd6c8" stroke-opacity="0.22" stroke-width="1.2"/><ellipse cx="600" cy="314.6" rx="190.0" ry="57.0" fill="none" stroke="#4fd6c8" stroke-opacity="0.22" stroke-width="1.2"/><ellipse cx="600" cy="208.0" rx="250.0" ry="75.0" fill="none" stroke="#4fd6c8" stroke-opacity="0.22" stroke-width="1.2"/><rect x="460" y="252" width="280" height="344" fill="#ffb454" fill-opacity="0.030"/><line x1="460" y1="252" x2="460" y2="596" stroke="#ffb454" stroke-opacity="0.38" stroke-width="1.2" stroke-dasharray="5 5"/><line x1="740" y1="252" x2="740" y2="596" stroke="#ffb454" stroke-opacity="0.38" stroke-width="1.2" stroke-dasharray="5 5"/><ellipse cx="600" cy="252" rx="140" ry="42.0" fill="none" stroke="#ffb454" stroke-opacity="0.44" stroke-width="1.2" stroke-dasharray="5 5"/><ellipse cx="600" cy="596" rx="140" ry="42.0" fill="none" stroke="#ffb454" stroke-opacity="0.24" stroke-width="1.1" stroke-dasharray="5 5"/><line x1="600" y1="204" x2="600" y2="652" stroke="#9fb4ff" stroke-opacity="0.10" stroke-width="7"/><line x1="600" y1="204" x2="600" y2="652" stroke="#cdd8ff" stroke-opacity="0.50" stroke-width="1.5"/><path d="M 600 204 l -5 11 M 600 204 l 5 11" stroke="#cdd8ff" stroke-opacity="0.50" stroke-width="1.5" fill="none"/><path d="M 600.0 652.0 L 600.5 651.1 L 601.0 650.2 L 601.5 649.3 L 602.1 648.4 L 602.5 647.5 L 603.0 646.7 L 603.5 645.8 L 603.9 645.0 L 604.3 644.2 L 604.7 643.4 L 605.1 642.6 L 605.5 641.8 L 605.8 641.0 L 606.0 640.3 L 606.3 639.5 L 606.5 638.8 L 606.6 638.0 L 606.8 637.3 L 606.8 636.6 L 606.9 635.8 L 606.9 635.1 L 606.8 634.4 L 606.7 633.7 L 606.5 633.0 L 606.3 632.3 L 606.1 631.6 L 605.8 630.9 L 605.4 630.2 L 605.0 629.5 L 604.5 628.7 L 604.0 628.0 L 603.5 627.3 L 602.9 626.6 L 602.2 625.8 L 601.5 625.1 L 600.7 624.3 L 599.9 623.6 L 599.1 622.8 L 598.2 622.0 L 597.3 621.2 L 596.3 620.4 L 595.3 619.6 L 594.3 618.7 L 593.2 617.9 L 592.1 617.0 L 591.0 616.1 L 589.8 615.2 L 588.7 614.3 L 587.5 613.3 L 586.2 612.4 L 585.0 611.4 L 583.8 610.4 L 582.6 609.4 L 581.3 608.4 L 580.1 607.3 L 578.8 606.2 L 577.6 605.1 L 576.4 604.0 L 575.2 602.9 L 574.0 601.7 L 572.9 600.5 L 571.7 599.3 L 570.6 598.1 L 569.5 596.9 L 568.5 595.6 L 567.5 594.3 L 566.6 593.0 L 565.7 591.7 L 564.8 590.4 L 564.0 589.0 L 563.3 587.7 L 562.6 586.3 L 562.0 584.9 L 561.5 583.5" fill="none" stroke="url(#wl)" stroke-opacity="0.16" stroke-width="8" stroke-linecap="round" stroke-linejoin="round"/><path d="M 600.0 652.0 L 600.5 651.1 L 601.0 650.2 L 601.5 649.3 L 602.1 648.4 L 602.5 647.5 L 603.0 646.7 L 603.5 645.8 L 603.9 645.0 L 604.3 644.2 L 604.7 643.4 L 605.1 642.6 L 605.5 641.8 L 605.8 641.0 L 606.0 640.3 L 606.3 639.5 L 606.5 638.8 L 606.6 638.0 L 606.8 637.3 L 606.8 636.6 L 606.9 635.8 L 606.9 635.1 L 606.8 634.4 L 606.7 633.7 L 606.5 633.0 L 606.3 632.3 L 606.1 631.6 L 605.8 630.9 L 605.4 630.2 L 605.0 629.5 L 604.5 628.7 L 604.0 628.0 L 603.5 627.3 L 602.9 626.6 L 602.2 625.8 L 601.5 625.1 L 600.7 624.3 L 599.9 623.6 L 599.1 622.8 L 598.2 622.0 L 597.3 621.2 L 596.3 620.4 L 595.3 619.6 L 594.3 618.7 L 593.2 617.9 L 592.1 617.0 L 591.0 616.1 L 589.8 615.2 L 588.7 614.3 L 587.5 613.3 L 586.2 612.4 L 585.0 611.4 L 583.8 610.4 L 582.6 609.4 L 581.3 608.4 L 580.1 607.3 L 578.8 606.2 L 577.6 605.1 L 576.4 604.0 L 575.2 602.9 L 574.0 601.7 L 572.9 600.5 L 571.7 599.3 L 570.6 598.1 L 569.5 596.9 L 568.5 595.6 L 567.5 594.3 L 566.6 593.0 L 565.7 591.7 L 564.8 590.4 L 564.0 589.0 L 563.3 587.7 L 562.6 586.3 L 562.0 584.9 L 561.5 583.5" fill="none" stroke="url(#wl)" stroke-width="3.0" stroke-linecap="round" stroke-linejoin="round"/><path d="M 561.5 583.5 L 561.0 582.0 L 560.6 580.6 L 560.3 579.2 L 560.0 577.7 L 559.8 576.2 L 559.8 574.8 L 559.8 573.3 L 559.8 571.8 L 560.0 570.3 L 560.3 568.8 L 560.6 567.3 L 561.1 565.8 L 561.6 564.3 L 562.2 562.8 L 562.9 561.3 L 563.8 559.8 L 564.7 558.3 L 565.7 556.9 L 566.8 555.4 L 568.0 553.9 L 569.2 552.5 L 570.6 551.1 L 572.1 549.6 L 573.6 548.2 L 575.2 546.9 L 577.0 545.5 L 578.8 544.1 L 580.6 542.8 L 582.6 541.5 L 584.6 540.2 L 586.7 539.0 L 588.9 537.7 L 591.1 536.5 L 593.4 535.3 L 595.7 534.2 L 598.1 533.1 L 600.6 532.0 L 603.1 530.9 L 605.6 529.9 L 608.1 528.9 L 610.7 527.9 L 613.3 527.0 L 616.0 526.1 L 618.6 525.3 L 621.3 524.5 L 623.9 523.7 L 626.6 522.9 L 629.2 522.2 L 631.8 521.5 L 634.5 520.9 L 637.1 520.3 L 639.6 519.8 L 642.1 519.2 L 644.6 518.7 L 647.0 518.3 L 649.4 517.9 L 651.7 517.5 L 654.0 517.1 L 656.2 516.8 L 658.3 516.5 L 660.3 516.3 L 662.2 516.1 L 664.1 515.9 L 665.9 515.7 L 667.5 515.6 L 669.0 515.5 L 670.5 515.4 L 671.8 515.3 L 673.0 515.3 L 674.1 515.3 L 675.0 515.3 L 675.8 515.3 L 676.5 515.3 L 677.1 515.4" fill="none" stroke="url(#wl)" stroke-opacity="0.30" stroke-width="1.8" stroke-linecap="round" stroke-linejoin="round" stroke-dasharray="2.5 4.5"/><path d="M 677.1 515.4 L 677.5 515.5 L 677.7 515.5 L 677.9 515.6 L 677.8 515.7 L 677.7 515.8 L 677.3 515.9 L 676.9 516.0 L 676.2 516.1 L 675.4 516.2 L 674.5 516.3 L 673.4 516.4 L 672.2 516.5 L 670.8 516.6 L 669.2 516.6 L 667.5 516.7 L 665.7 516.7 L 663.7 516.7 L 661.5 516.7 L 659.3 516.6 L 656.8 516.6 L 654.3 516.5 L 651.6 516.3 L 648.8 516.2 L 645.8 516.0 L 642.7 515.8 L 639.5 515.5 L 636.3 515.2 L 632.9 514.9 L 629.3 514.5 L 625.7 514.1 L 622.1 513.6 L 618.3 513.1 L 614.4 512.5 L 610.5 511.9 L 606.5 511.3 L 602.5 510.5 L 598.4 509.8 L 594.3 509.0 L 590.1 508.1 L 585.9 507.2 L 581.7 506.2 L 577.5 505.2 L 573.3 504.1 L 569.1 502.9 L 564.9 501.7 L 560.7 500.5 L 556.6 499.2 L 552.5 497.8 L 548.4 496.4 L 544.4 494.9 L 540.5 493.4 L 536.6 491.8 L 532.8 490.2 L 529.1 488.5 L 525.5 486.7 L 522.0 484.9 L 518.6 483.1 L 515.3 481.2 L 512.2 479.3 L 509.1 477.3 L 506.3 475.3 L 503.5 473.2 L 501.0 471.1 L 498.6 469.0 L 496.3 466.8 L 494.2 464.6 L 492.3 462.3 L 490.6 460.1 L 489.1 457.8 L 487.7 455.5 L 486.6 453.1 L 485.7 450.7 L 484.9 448.4 L 484.4 446.0" fill="none" stroke="url(#wl)" stroke-opacity="0.16" stroke-width="8" stroke-linecap="round" stroke-linejoin="round"/><path d="M 677.1 515.4 L 677.5 515.5 L 677.7 515.5 L 677.9 515.6 L 677.8 515.7 L 677.7 515.8 L 677.3 515.9 L 676.9 516.0 L 676.2 516.1 L 675.4 516.2 L 674.5 516.3 L 673.4 516.4 L 672.2 516.5 L 670.8 516.6 L 669.2 516.6 L 667.5 516.7 L 665.7 516.7 L 663.7 516.7 L 661.5 516.7 L 659.3 516.6 L 656.8 516.6 L 654.3 516.5 L 651.6 516.3 L 648.8 516.2 L 645.8 516.0 L 642.7 515.8 L 639.5 515.5 L 636.3 515.2 L 632.9 514.9 L 629.3 514.5 L 625.7 514.1 L 622.1 513.6 L 618.3 513.1 L 614.4 512.5 L 610.5 511.9 L 606.5 511.3 L 602.5 510.5 L 598.4 509.8 L 594.3 509.0 L 590.1 508.1 L 585.9 507.2 L 581.7 506.2 L 577.5 505.2 L 573.3 504.1 L 569.1 502.9 L 564.9 501.7 L 560.7 500.5 L 556.6 499.2 L 552.5 497.8 L 548.4 496.4 L 544.4 494.9 L 540.5 493.4 L 536.6 491.8 L 532.8 490.2 L 529.1 488.5 L 525.5 486.7 L 522.0 484.9 L 518.6 483.1 L 515.3 481.2 L 512.2 479.3 L 509.1 477.3 L 506.3 475.3 L 503.5 473.2 L 501.0 471.1 L 498.6 469.0 L 496.3 466.8 L 494.2 464.6 L 492.3 462.3 L 490.6 460.1 L 489.1 457.8 L 487.7 455.5 L 486.6 453.1 L 485.7 450.7 L 484.9 448.4 L 484.4 446.0" fill="none" stroke="url(#wl)" stroke-width="3.0" stroke-linecap="round" stroke-linejoin="round"/><path d="M 484.4 446.0 L 484.1 443.6 L 484.0 441.1 L 484.1 438.7 L 484.4 436.3 L 484.9 433.9 L 485.7 431.4 L 486.7 429.0 L 487.9 426.6 L 489.3 424.2 L 490.9 421.8 L 492.8 419.4 L 494.9 417.1 L 497.1 414.7 L 499.6 412.4 L 502.3 410.1 L 505.2 407.9 L 508.3 405.7 L 511.6 403.5 L 515.1 401.3 L 518.8 399.2 L 522.6 397.2 L 526.7 395.2 L 530.9 393.2 L 535.2 391.3 L 539.7 389.4 L 544.4 387.6 L 549.2 385.9 L 554.1 384.2 L 559.2 382.6 L 564.4 381.0 L 569.7 379.5 L 575.0 378.1 L 580.5 376.7 L 586.1 375.4 L 591.7 374.2 L 597.4 373.0 L 603.1 372.0 L 608.9 371.0 L 614.7 370.0 L 620.5 369.2 L 626.3 368.4 L 632.1 367.7 L 637.9 367.1 L 643.7 366.5 L 649.4 366.0 L 655.1 365.6 L 660.7 365.3 L 666.3 365.0 L 671.8 364.9 L 677.2 364.8 L 682.4 364.7 L 687.6 364.8 L 692.7 364.9 L 697.6 365.0 L 702.3 365.3 L 707.0 365.6 L 711.4 365.9 L 715.7 366.4 L 719.8 366.9 L 723.7 367.4 L 727.4 368.0 L 730.9 368.6 L 734.2 369.3 L 737.2 370.1 L 740.1 370.9 L 742.7 371.7 L 745.0 372.6 L 747.1 373.5 L 748.9 374.4 L 750.5 375.4 L 751.8 376.3 L 752.9 377.3 L 753.6 378.4 L 754.1 379.4" fill="none" stroke="url(#wl)" stroke-opacity="0.30" stroke-width="1.8" stroke-linecap="round" stroke-linejoin="round" stroke-dasharray="2.5 4.5"/><path d="M 754.1 379.4 L 754.3 380.5 L 754.2 381.5 L 753.9 382.6 L 753.2 383.6 L 752.3 384.7 L 751.1 385.8 L 749.6 386.8 L 747.8 387.8 L 745.7 388.8 L 743.4 389.8 L 740.8 390.8 L 737.9 391.7 L 734.7 392.6 L 731.2 393.5 L 727.5 394.3 L 723.6 395.1 L 719.3 395.8 L 714.9 396.5 L 710.2 397.1 L 705.2 397.7 L 700.1 398.2 L 694.7 398.6 L 689.1 399.0 L 683.3 399.3 L 677.4 399.5 L 671.2 399.7 L 664.9 399.8 L 658.4 399.8 L 651.8 399.7 L 645.0 399.6 L 638.1 399.3 L 631.1 399.0 L 624.0 398.6 L 616.8 398.1 L 609.6 397.5 L 602.3 396.8 L 594.9 396.0 L 587.5 395.1 L 580.1 394.1 L 572.6 393.1 L 565.2 391.9 L 557.8 390.6 L 550.4 389.3 L 543.1 387.8 L 535.8 386.3 L 528.6 384.6 L 521.5 382.9 L 514.5 381.0 L 507.6 379.1 L 500.9 377.1 L 494.2 375.0 L 487.8 372.8 L 481.5 370.5 L 475.4 368.2 L 469.5 365.7 L 463.8 363.2 L 458.3 360.6 L 453.0 357.9 L 448.0 355.2 L 443.2 352.4 L 438.7 349.5 L 434.4 346.6 L 430.5 343.6 L 426.8 340.5 L 423.4 337.4 L 420.3 334.3 L 417.5 331.1 L 415.1 327.9 L 413.0 324.6 L 411.2 321.3 L 409.7 318.0 L 408.6 314.6 L 407.8 311.2 L 407.4 307.9" fill="none" stroke="url(#wl)" stroke-opacity="0.16" stroke-width="8" stroke-linecap="round" stroke-linejoin="round"/><path d="M 754.1 379.4 L 754.3 380.5 L 754.2 381.5 L 753.9 382.6 L 753.2 383.6 L 752.3 384.7 L 751.1 385.8 L 749.6 386.8 L 747.8 387.8 L 745.7 388.8 L 743.4 389.8 L 740.8 390.8 L 737.9 391.7 L 734.7 392.6 L 731.2 393.5 L 727.5 394.3 L 723.6 395.1 L 719.3 395.8 L 714.9 396.5 L 710.2 397.1 L 705.2 397.7 L 700.1 398.2 L 694.7 398.6 L 689.1 399.0 L 683.3 399.3 L 677.4 399.5 L 671.2 399.7 L 664.9 399.8 L 658.4 399.8 L 651.8 399.7 L 645.0 399.6 L 638.1 399.3 L 631.1 399.0 L 624.0 398.6 L 616.8 398.1 L 609.6 397.5 L 602.3 396.8 L 594.9 396.0 L 587.5 395.1 L 580.1 394.1 L 572.6 393.1 L 565.2 391.9 L 557.8 390.6 L 550.4 389.3 L 543.1 387.8 L 535.8 386.3 L 528.6 384.6 L 521.5 382.9 L 514.5 381.0 L 507.6 379.1 L 500.9 377.1 L 494.2 375.0 L 487.8 372.8 L 481.5 370.5 L 475.4 368.2 L 469.5 365.7 L 463.8 363.2 L 458.3 360.6 L 453.0 357.9 L 448.0 355.2 L 443.2 352.4 L 438.7 349.5 L 434.4 346.6 L 430.5 343.6 L 426.8 340.5 L 423.4 337.4 L 420.3 334.3 L 417.5 331.1 L 415.1 327.9 L 413.0 324.6 L 411.2 321.3 L 409.7 318.0 L 408.6 314.6 L 407.8 311.2 L 407.4 307.9" fill="none" stroke="url(#wl)" stroke-width="3.0" stroke-linecap="round" stroke-linejoin="round"/><path d="M 407.4 307.9 L 407.3 304.5 L 407.6 301.1 L 408.2 297.7 L 409.2 294.3 L 410.5 290.9 L 412.2 287.5 L 414.3 284.2 L 416.7 280.8 L 419.4 277.5 L 422.5 274.2 L 425.9 271.0 L 429.7 267.8 L 433.8 264.6 L 438.2 261.5 L 442.9 258.5 L 448.0 255.5 L 453.3 252.5 L 459.0 249.7 L 464.9 246.9 L 471.1 244.1 L 477.6 241.5 L 484.4 238.9 L 491.3 236.4 L 498.6 234.0 L 506.0 231.7 L 513.7 229.5 L 521.5 227.4 L 529.5 225.4 L 537.7 223.4 L 546.1 221.6 L 554.6 219.9 L 563.2 218.3 L 571.9 216.8 L 580.7 215.4 L 589.6 214.2 L 598.6 213.0 L 607.6 212.0 L 616.7 211.0 L 625.7 210.2 L 634.8 209.5 L 643.8 209.0 L 652.8 208.5 L 661.8 208.2 L 670.6 207.9 L 679.4 207.8 L 688.1 207.8 L 696.7 207.9 L 705.1 208.2 L 713.4 208.5 L 721.5 208.9 L 729.5 209.5 L 737.2 210.1 L 744.7 210.9 L 752.0 211.7 L 759.1 212.7 L 765.9 213.7 L 772.4 214.9 L 778.6 216.1 L 784.6 217.4 L 790.2 218.8 L 795.5 220.2 L 800.5 221.8 L 805.1 223.4 L 809.4 225.0 L 813.3 226.7 L 816.9 228.5 L 820.0 230.3 L 822.8 232.2 L 825.2 234.1 L 827.2 236.0 L 828.8 238.0 L 830.0 240.0 L 830.7 242.0 L 831.1 244.0" fill="none" stroke="url(#wl)" stroke-opacity="0.30" stroke-width="1.8" stroke-linecap="round" stroke-linejoin="round" stroke-dasharray="2.5 4.5"/><path d="M 831.1 244.0 L 831.0 246.1 L 830.5 248.1 L 829.6 250.1 L 828.2 252.2 L 826.5 254.2 L 824.3 256.2 L 821.7 258.1 L 818.7 260.1 L 815.2 262.0 L 811.4 263.8 L 807.1 265.7 L 802.5 267.4 L 797.5 269.1 L 792.1 270.8 L 786.3 272.4 L 780.1 273.9 L 773.6 275.3 L 766.8 276.7 L 759.6 278.0 L 752.1 279.1 L 744.3 280.2 L 736.2 281.2 L 727.8 282.1 L 719.1 282.9 L 710.2 283.6 L 701.0 284.1 L 691.6 284.6 L 682.1 284.9 L 672.3 285.1 L 662.3 285.2 L 652.2 285.2 L 642.0 285.0 L 631.6 284.7 L 621.2 284.3 L 610.6 283.7 L 600.0 283.0" fill="none" stroke="url(#wl)" stroke-opacity="0.16" stroke-width="8" stroke-linecap="round" stroke-linejoin="round"/><path d="M 831.1 244.0 L 831.0 246.1 L 830.5 248.1 L 829.6 250.1 L 828.2 252.2 L 826.5 254.2 L 824.3 256.2 L 821.7 258.1 L 818.7 260.1 L 815.2 262.0 L 811.4 263.8 L 807.1 265.7 L 802.5 267.4 L 797.5 269.1 L 792.1 270.8 L 786.3 272.4 L 780.1 273.9 L 773.6 275.3 L 766.8 276.7 L 759.6 278.0 L 752.1 279.1 L 744.3 280.2 L 736.2 281.2 L 727.8 282.1 L 719.1 282.9 L 710.2 283.6 L 701.0 284.1 L 691.6 284.6 L 682.1 284.9 L 672.3 285.1 L 662.3 285.2 L 652.2 285.2 L 642.0 285.0 L 631.6 284.7 L 621.2 284.3 L 610.6 283.7 L 600.0 283.0" fill="none" stroke="url(#wl)" stroke-width="3.0" stroke-linecap="round" stroke-linejoin="round"/><circle cx="600" cy="652" r="9" fill="#9fb4ff" fill-opacity="0.18"/><circle cx="600" cy="652" r="4.2" fill="#e9eeff"/><circle cx="600.0" cy="283.0" r="17" fill="#ffe8b0" fill-opacity="0.12"/><circle cx="600.0" cy="283.0" r="9" fill="#ffd27a" fill-opacity="0.32"/><circle cx="600.0" cy="283.0" r="4.5" fill="#fff4de"/><text x="600" y="64" text-anchor="middle" font-family="Helvetica Neue,Helvetica,Arial,sans-serif" font-size="34" font-weight="700" letter-spacing="3" fill="#eaf0ff">THE EMBRA 5D FRAMEWORK</text><text x="600" y="93" text-anchor="middle" font-family="Helvetica Neue,Helvetica,Arial,sans-serif" font-size="15.5" fill="#8fa0c4">4D spacetime as a constraint surface in a flat five-dimensional bulk</text><line x1="892.0" y1="250.0" x2="503.6" y2="377.9" stroke="#6b7ba3" stroke-opacity="0.7" stroke-width="1"/><circle cx="503.6" cy="377.9" r="2.1" fill="#9fb0d6"/><text x="900" y="246" text-anchor="start" font-family="Helvetica Neue,Helvetica,Arial,sans-serif" font-size="16" font-weight="600" fill="#e6ecfb">worldline helix</text><text x="900" y="267" text-anchor="start" font-family="Helvetica Neue,Helvetica,Arial,sans-serif" font-size="12.5" font-weight="400" fill="#8493b6">cycle + helix constraints</text><line x1="322.0" y1="372.0" x2="470.0" y2="396.0" stroke="#6b7ba3" stroke-opacity="0.7" stroke-width="1"/><circle cx="470.0" cy="396.0" r="2.1" fill="#9fb0d6"/><text x="314" y="368" text-anchor="end" font-family="Helvetica Neue,Helvetica,Arial,sans-serif" font-size="16" font-weight="600" fill="#e6ecfb">constraint surface M</text><text x="314" y="389" text-anchor="end" font-family="Helvetica Neue,Helvetica,Arial,sans-serif" font-size="12.5" font-weight="400" fill="#8493b6">the cone / spiral</text><line x1="892.0" y1="470.0" x2="740.0" y2="470.0" stroke="#6b7ba3" stroke-opacity="0.7" stroke-width="1"/><circle cx="740.0" cy="470.0" r="2.1" fill="#9fb0d6"/><text x="900" y="466" text-anchor="start" font-family="Helvetica Neue,Helvetica,Arial,sans-serif" font-size="16" font-weight="600" fill="#ffd8a0">light cylinder</text><text x="900" y="487" text-anchor="start" font-family="Helvetica Neue,Helvetica,Arial,sans-serif" font-size="12.5" font-weight="400" fill="#c2a878">ρ = 1/ω ≈ 3.82</text><line x1="600.0" y1="690.0" x2="600.0" y2="659.0" stroke="#6b7ba3" stroke-opacity="0.7" stroke-width="1"/><circle cx="600.0" cy="659.0" r="2.1" fill="#9fb0d6"/><text x="600" y="712" text-anchor="middle" font-family="Helvetica Neue,Helvetica,Arial,sans-serif" font-size="16" font-weight="600" fill="#dfe6f7">null rest · ρ = 0</text><text x="600" y="732" text-anchor="middle" font-family="Helvetica Neue,Helvetica,Arial,sans-serif" font-size="12.5" font-weight="400" fill="#8493b6">rest is lightlike  (σ = 24c)</text><text x="599.9999999999998" y="261.0" text-anchor="middle" font-family="Helvetica Neue,Helvetica,Arial,sans-serif" font-size="14" font-weight="600" fill="#ffe9c2">now</text><text x="74" y="726" text-anchor="start" font-family="Helvetica Neue,Helvetica,Arial,sans-serif" font-size="13" font-weight="400" fill="#55618a">flat 5D bulk</text></svg>